<svg width="22" height="24" viewBox="0 0 22 24"  xmlns="http://www.w3.org/2000/svg">
<path d="M10.2415 11.7584C13.2123 11.7584 15.6207 9.35006 15.6207 6.37921C15.6207 3.40836 13.2123 1 10.2415 1C7.27066 1 4.8623 3.40836 4.8623 6.37921C4.8623 9.35006 7.27066 11.7584 10.2415 11.7584Z"  stroke-width="2" stroke-linecap="round" stroke-linejoin="round"/>
<path d="M1 22.5172C1 18.3537 5.14199 14.9863 10.2415 14.9863C11.2743 14.9863 12.2748 15.1262 13.2108 15.3844"  stroke-width="2" stroke-linecap="round" stroke-linejoin="round"/>
<path d="M20.9998 18.2135C20.9998 18.5578 20.9568 18.8913 20.8707 19.2141C20.7739 19.6444 20.6017 20.064 20.3758 20.4298C19.6335 21.6777 18.2672 22.5169 16.6964 22.5169C15.5883 22.5169 14.5878 22.0973 13.8347 21.4088C13.5119 21.1291 13.2322 20.7955 13.0171 20.4298C12.619 19.7843 12.3931 19.0204 12.3931 18.2135C12.3931 17.0516 12.8557 15.9865 13.6088 15.2119C14.3941 14.405 15.4915 13.9102 16.6964 13.9102C17.9659 13.9102 19.1171 14.4588 19.8917 15.341C20.5802 16.1049 20.9998 17.1162 20.9998 18.2135Z"  stroke-width="2" stroke-miterlimit="10" stroke-linecap="round" stroke-linejoin="round"/>
<path d="M18.2993 18.1924H15.0933"  stroke-width="2" stroke-miterlimit="10" stroke-linecap="round" stroke-linejoin="round"/>
<path d="M16.6963 16.6211V19.8379"  stroke-width="2" stroke-miterlimit="10" stroke-linecap="round" stroke-linejoin="round"/>
</svg>
