<svg width="26" height="23" viewBox="0 0 26 23" xmlns="http://www.w3.org/2000/svg">
<path d="M25.8281 6.3635V20.426C25.8281 21.7199 24.7783 22.7698 23.4844 22.7698H3.17188C1.87793 22.7698 0.828125 21.7199 0.828125 20.426V6.3635C0.828125 5.06956 1.87793 4.01975 3.17188 4.01975H7.46875L8.06934 2.41331C8.41113 1.50022 9.28516 0.894753 10.2617 0.894753H16.3896C17.3662 0.894753 18.2402 1.50022 18.582 2.41331L19.1875 4.01975H23.4844C24.7783 4.01975 25.8281 5.06956 25.8281 6.3635ZM19.1875 13.3948C19.1875 10.1623 16.5605 7.53538 13.3281 7.53538C10.0957 7.53538 7.46875 10.1623 7.46875 13.3948C7.46875 16.6272 10.0957 19.2541 13.3281 19.2541C16.5605 19.2541 19.1875 16.6272 19.1875 13.3948ZM17.625 13.3948C17.625 15.7629 15.6963 17.6916 13.3281 17.6916C10.96 17.6916 9.03125 15.7629 9.03125 13.3948C9.03125 11.0266 10.96 9.09788 13.3281 9.09788C15.6963 9.09788 17.625 11.0266 17.625 13.3948Z"/>
</svg>
