<svg width="35" height="35" viewBox="0 0 35 35"  xmlns="http://www.w3.org/2000/svg">
<path d="M32.3419 11.2319L23.7565 2.64644C21.9561 0.84597 19.4733 -0.120599 16.9337 0.0120675L7.45744 0.466924C3.66697 0.637495 0.65355 3.65092 0.464026 7.42243L0.00917004 16.8986C-0.104544 19.4382 0.843073 21.921 2.64355 23.7214L11.229 32.3069C14.7542 35.832 20.4778 35.832 24.0219 32.3069L32.3419 23.9868C35.886 20.4806 35.886 14.757 32.3419 11.2319ZM12.7641 18.2063C9.75067 18.2063 7.30582 15.7615 7.30582 12.748C7.30582 9.73462 9.75067 7.28977 12.7641 7.28977C15.7776 7.28977 18.2224 9.73462 18.2224 12.748C18.2224 15.7615 15.7776 18.2063 12.7641 18.2063Z" />
</svg>
