<svg width="25" height="25" viewBox="0 0 25 25" xmlns="http://www.w3.org/2000/svg">
<path d="M25 18.1241V21.874C25 23.5989 23.6001 24.9988 21.8752 24.9988H12.9506C11.8381 24.9988 11.2882 23.6614 12.0631 22.8739L19.4003 15.3743C19.6378 15.1368 19.9628 14.9993 20.2877 14.9993H21.8752C23.6001 14.9993 25 16.3992 25 18.1241Z"/>
<path d="M20.4619 11.6113L17.0746 14.9986L13.9997 18.061C13.2122 18.8484 11.8623 18.2985 11.8623 17.186C11.8623 13.1737 11.8623 6.57404 11.8623 6.57404C11.8623 6.23655 11.9998 5.92407 12.2248 5.68658L13.3747 4.53663C14.5997 3.31168 16.5746 3.31168 17.7995 4.53663L20.4494 7.18651C21.6869 8.41145 21.6869 10.3863 20.4619 11.6113Z"/>
<path d="M6.87469 0H3.12486C1.24994 0 0 1.24994 0 3.12486V19.9991C0 20.3366 0.0374982 20.6741 0.0999954 20.9991C0.137494 21.1615 0.174992 21.324 0.22499 21.4865C0.287487 21.674 0.349984 21.8615 0.424981 22.0365C0.43748 22.049 0.43748 22.0615 0.43748 22.0615C0.44998 22.0615 0.44998 22.0615 0.43748 22.074C0.612472 22.424 0.812463 22.7615 1.04995 23.074C1.18745 23.2365 1.32494 23.3864 1.46243 23.5364C1.59993 23.6864 1.74992 23.8114 1.91241 23.9364L1.92491 23.9489C2.2374 24.1864 2.57488 24.3864 2.92487 24.5614C2.93737 24.5489 2.93737 24.5489 2.93737 24.5614C3.12486 24.6489 3.31235 24.7114 3.51234 24.7739C3.67483 24.8239 3.83733 24.8614 3.99982 24.8989C4.32481 24.9614 4.66229 24.9989 4.99977 24.9989C5.51225 24.9989 6.03723 24.9239 6.52471 24.7614C6.6622 24.7114 6.79969 24.6614 6.93719 24.5989C7.37467 24.4239 7.79965 24.1739 8.17463 23.8489C8.28713 23.7614 8.41212 23.6489 8.52462 23.5364L8.57461 23.4864C9.44957 22.5865 9.99955 21.349 9.99955 19.9991V3.12486C9.99955 1.24994 8.74961 0 6.87469 0ZM4.99977 21.874C3.96232 21.874 3.12486 21.0366 3.12486 19.9991C3.12486 18.9616 3.96232 18.1242 4.99977 18.1242C6.03723 18.1242 6.87469 18.9616 6.87469 19.9991C6.87469 21.0366 6.03723 21.874 4.99977 21.874Z"/>
</svg>
