<svg width="25" height="25" viewBox="0 0 25 25" xmlns="http://www.w3.org/2000/svg">
<path d="M12.5 0C5.6 0 0 5.6 0 12.5C0 19.4 5.6 25 12.5 25C19.4 25 25 19.4 25 12.5C25 5.6 19.4 0 12.5 0ZM8.4125 7.075C9.425 7.075 10.2625 7.9 10.2625 8.925C10.2625 9.9375 9.4375 10.775 8.4125 10.775C7.4 10.775 6.5625 9.95 6.5625 8.925C6.5625 7.9 7.3875 7.075 8.4125 7.075ZM8.5625 17.25C8.375 17.4375 8.1375 17.525 7.9 17.525C7.6625 17.525 7.425 17.4375 7.2375 17.25C6.875 16.8875 6.875 16.2875 7.2375 15.925L15.425 7.7375C15.7875 7.375 16.3875 7.375 16.75 7.7375C17.1125 8.1 17.1125 8.7 16.75 9.0625L8.5625 17.25ZM16.5875 17.925C15.575 17.925 14.7375 17.1 14.7375 16.075C14.7375 15.0625 15.5625 14.225 16.5875 14.225C17.6 14.225 18.4375 15.05 18.4375 16.075C18.4375 17.1 17.6125 17.925 16.5875 17.925Z"/>
</svg>
