<svg width="35" height="35" viewBox="0 0 35 35"  xmlns="http://www.w3.org/2000/svg">
<path d="M9.17023 0H5.84515C2.01255 0 0 2.01255 0 5.82765V9.15273C0 12.9678 2.01255 14.9804 5.82765 14.9804H9.15273C12.9678 14.9804 14.9804 12.9678 14.9804 9.15273V5.82765C14.9979 2.01255 12.9853 0 9.17023 0Z" />
<path d="M29.1723 0H25.8472C22.0321 0 20.0195 2.01255 20.0195 5.82765V9.15273C20.0195 12.9678 22.0321 14.9804 25.8472 14.9804H29.1723C32.9874 14.9804 34.9999 12.9678 34.9999 9.15273V5.82765C34.9999 2.01255 32.9874 0 29.1723 0Z" />
<path d="M29.1723 20.0029H25.8472C22.0321 20.0029 20.0195 22.0155 20.0195 25.8306V29.1557C20.0195 32.9708 22.0321 34.9833 25.8472 34.9833H29.1723C32.9874 34.9833 34.9999 32.9708 34.9999 29.1557V25.8306C34.9999 22.0155 32.9874 20.0029 29.1723 20.0029Z" />
<path d="M9.17023 20.0029H5.84515C2.01255 20.0029 0 22.0155 0 25.8306V29.1557C0 32.9883 2.01255 35.0008 5.82765 35.0008H9.15273C12.9678 35.0008 14.9804 32.9883 14.9804 29.1732V25.8481C14.9979 22.0155 12.9853 20.0029 9.17023 20.0029Z" />
</svg>
