<svg width="20" height="21" viewBox="0 0 20 21"  xmlns="http://www.w3.org/2000/svg">
<path d="M14.1971 0H5.8129C2.17108 0 0 2.17108 0 5.8129V14.1871C0 17.8389 2.17108 20.01 5.8129 20.01H14.1871C17.8289 20.01 20 17.8389 20 14.1971V5.8129C20.01 2.17108 17.8389 0 14.1971 0ZM8.95446 15.5177C8.66432 15.8079 8.11404 16.088 7.71384 16.148L5.25262 16.4982C5.16257 16.5082 5.07253 16.5182 4.98248 16.5182C4.57228 16.5182 4.19209 16.3782 3.92195 16.108C3.59179 15.7779 3.45172 15.2976 3.53176 14.7674L3.88193 12.3061C3.94196 11.8959 4.2121 11.3557 4.51225 11.0655L8.97447 6.60329C9.05451 6.8134 9.13455 7.0235 9.24461 7.26362C9.34466 7.47372 9.45471 7.69383 9.57477 7.89393C9.67482 8.06402 9.78488 8.2241 9.87492 8.34416C9.98497 8.51424 10.115 8.67432 10.1951 8.76437C10.2451 8.8344 10.2851 8.88443 10.3051 8.90444C10.5553 9.20459 10.8454 9.48473 11.0955 9.69483C11.1656 9.76486 11.2056 9.80489 11.2256 9.81489C11.3757 9.93495 11.5257 10.055 11.6558 10.1451C11.8159 10.2651 11.976 10.3752 12.1461 10.4652C12.3462 10.5853 12.5663 10.6953 12.7864 10.8054C13.0165 10.9054 13.2266 10.9955 13.4367 11.0655L8.95446 15.5177ZM15.3777 9.09453L14.4572 10.025C14.3972 10.085 14.3171 10.115 14.2371 10.115C14.2071 10.115 14.1671 10.115 14.147 10.105C12.116 9.52475 10.4952 7.90394 9.91494 5.87293C9.88492 5.76287 9.91494 5.64281 9.99498 5.57278L10.9254 4.64231C12.4462 3.12156 13.8969 3.15157 15.3877 4.64231C16.148 5.40269 16.5182 6.13306 16.5182 6.89344C16.5082 7.61379 16.138 8.33415 15.3777 9.09453Z" />
</svg>
