<svg width="23" height="22" viewBox="0 0 23 22" xmlns="http://www.w3.org/2000/svg">
<path d="M0.574219 7.29741V1.24273C0.574219 0.593311 1.09668 0.0708504 1.74609 0.0708504H7.80078C8.12305 0.0708504 8.38672 0.334522 8.38672 0.656788V2.60991C8.38672 2.93218 8.12305 3.19585 7.80078 3.19585H3.69922V7.29741C3.69922 7.61968 3.43555 7.88335 3.11328 7.88335H1.16016C0.837891 7.88335 0.574219 7.61968 0.574219 7.29741ZM14.6367 0.656788V2.60991C14.6367 2.93218 14.9004 3.19585 15.2227 3.19585H19.3242V7.29741C19.3242 7.61968 19.5879 7.88335 19.9102 7.88335H21.8633C22.1855 7.88335 22.4492 7.61968 22.4492 7.29741V1.24273C22.4492 0.593311 21.9268 0.0708504 21.2773 0.0708504H15.2227C14.9004 0.0708504 14.6367 0.334522 14.6367 0.656788ZM21.8633 14.1334H19.9102C19.5879 14.1334 19.3242 14.397 19.3242 14.7193V18.8209H15.2227C14.9004 18.8209 14.6367 19.0845 14.6367 19.4068V21.3599C14.6367 21.6822 14.9004 21.9459 15.2227 21.9459H21.2773C21.9268 21.9459 22.4492 21.4234 22.4492 20.774V14.7193C22.4492 14.397 22.1855 14.1334 21.8633 14.1334ZM8.38672 21.3599V19.4068C8.38672 19.0845 8.12305 18.8209 7.80078 18.8209H3.69922V14.7193C3.69922 14.397 3.43555 14.1334 3.11328 14.1334H1.16016C0.837891 14.1334 0.574219 14.397 0.574219 14.7193V20.774C0.574219 21.4234 1.09668 21.9459 1.74609 21.9459H7.80078C8.12305 21.9459 8.38672 21.6822 8.38672 21.3599Z"/>
</svg>
