<svg width="25" height="23" viewBox="0 0 25 23" xmlns="http://www.w3.org/2000/svg">
<path d="M24.7111 10.0534C22.2639 5.90053 17.7001 3.12497 12.5 3.12497C11.2644 3.12497 10.065 3.28204 8.92142 3.57675L6.63101 0.444413C6.30111 -0.0268545 5.65167 -0.141525 5.18036 0.188336L4.61118 0.586687C4.13983 0.916592 4.02516 1.56611 4.3551 2.03747L6.22711 4.57197C3.88236 5.71742 1.74603 7.5817 0.290043 10.0512C0.289609 10.052 0.289044 10.0527 0.288567 10.0534C-0.0918583 10.699 -0.100495 11.5086 0.288567 12.1688C1.95957 15.0044 4.61765 17.1975 7.79113 18.3037L2.40089 10.6034C2.7658 10.0503 3.1766 9.52887 3.62893 9.04467L8.81122 16.4483H8.81166L10.5751 18.9674C11.711 19.1214 12.8613 19.1384 14.0013 19.0182L5.75567 7.23868C6.29081 6.88232 6.85362 6.56935 7.4387 6.30279L18.3691 21.7778C18.699 22.2491 19.3484 22.3637 19.8197 22.0339L20.3889 21.6355C20.8603 21.3056 20.9749 20.656 20.645 20.1847L18.7735 17.651L18.7732 17.6506C21.2541 16.4363 23.3233 14.5239 24.7111 12.1688C24.9002 11.8484 25 11.4832 25 11.1111C25 10.739 24.9003 10.3738 24.7111 10.0534ZM16.9282 15.0147L16.1007 13.8329C17.172 12.4194 17.3035 10.5189 16.4827 8.98564V8.98695C16.4827 10.0134 15.6506 10.8455 14.6242 10.8455C13.59 10.8455 12.7656 10.0057 12.7656 8.98695C12.7656 7.96047 13.5977 7.12844 14.6242 7.12844H14.6255C13.5512 6.5534 12.3025 6.44949 11.1745 6.79511L10.3469 5.61295C11.0138 5.35179 11.74 5.2083 12.5 5.2083C15.7623 5.2083 18.4028 7.84832 18.4028 11.1111C18.4028 12.6086 17.8458 13.9746 16.9282 15.0147Z"/>
</svg>
