<svg width="25" height="25" viewBox="0 0 25 25" xmlns="http://www.w3.org/2000/svg">
<path d="M6.25 7.5H2.5C1.125 7.5 0 6.375 0 5V2.5C0 1.125 1.125 0 2.5 0H6.25C7.625 0 8.75 1.125 8.75 2.5V5C8.75 6.375 7.625 7.5 6.25 7.5Z"/>
<path d="M23.5 6.25H19C18.175 6.25 17.5 5.575 17.5 4.75V2.75C17.5 1.925 18.175 1.25 19 1.25H23.5C24.325 1.25 25 1.925 25 2.75V4.75C25 5.575 24.325 6.25 23.5 6.25Z"/>
<path d="M23.5 15.625H19C18.175 15.625 17.5 14.95 17.5 14.125V12.125C17.5 11.3 18.175 10.625 19 10.625H23.5C24.325 10.625 25 11.3 25 12.125V14.125C25 14.95 24.325 15.625 23.5 15.625Z"/>
<path opacity="0.96" d="M17.5 14.0625C18.0125 14.0625 18.4375 13.6375 18.4375 13.125C18.4375 12.6125 18.0125 12.1875 17.5 12.1875H14.0625V4.6875H17.5C18.0125 4.6875 18.4375 4.2625 18.4375 3.75C18.4375 3.2375 18.0125 2.8125 17.5 2.8125H8.75C8.2375 2.8125 7.8125 3.2375 7.8125 3.75C7.8125 4.2625 8.2375 4.6875 8.75 4.6875H12.1875V20C12.1875 21.9 13.725 23.4375 15.625 23.4375H17.5C18.0125 23.4375 18.4375 23.0125 18.4375 22.5C18.4375 21.9875 18.0125 21.5625 17.5 21.5625H15.625C14.7625 21.5625 14.0625 20.8625 14.0625 20V14.0625H17.5Z"/>
<path d="M23.5 25H19C18.175 25 17.5 24.325 17.5 23.5V21.5C17.5 20.675 18.175 20 19 20H23.5C24.325 20 25 20.675 25 21.5V23.5C25 24.325 24.325 25 23.5 25Z"/>
</svg>
