<svg width="189" height="189" viewBox="0 0 189 189" xmlns="http://www.w3.org/2000/svg">
<path d="M170.363 63.281H144.012C132.629 63.281 125.817 56.4692 125.817 45.0863V18.7353C125.817 7.35235 132.629 0.540527 144.012 0.540527H170.363C181.746 0.540527 188.558 7.35235 188.558 18.7353V45.0863C188.558 56.4692 181.746 63.281 170.363 63.281ZM172.335 33.6137C171.259 32.5382 169.825 32.0004 168.391 32.0004C166.957 32.0004 165.523 32.5382 164.448 33.6137L162.834 35.227V15.1501C162.834 12.0131 160.325 9.50345 157.188 9.50345C154.051 9.50345 151.541 12.0131 151.541 15.1501V35.227L149.928 33.6137C147.777 31.4626 144.191 31.4626 142.04 33.6137C139.889 35.7648 139.889 39.35 142.04 41.5011L153.244 52.7047C153.692 53.1529 154.319 53.5114 154.947 53.7803C155.126 53.8699 155.305 53.8699 155.485 53.9595C155.933 54.1388 156.381 54.2284 156.919 54.2284H157.457C158.084 54.2284 158.622 54.1388 159.249 53.8699H159.428C160.056 53.601 160.594 53.2425 161.042 52.7944C161.131 52.7047 161.131 52.7047 161.221 52.7047L172.425 41.5011C174.576 39.35 174.576 35.7648 172.335 33.6137Z"/>
<path d="M63.0866 84.6226C74.8676 84.6226 84.4185 75.072 84.4185 63.2907C84.4185 51.5096 74.8676 41.959 63.0866 41.959C51.3055 41.959 41.7549 51.5096 41.7549 63.2907C41.7549 75.072 51.3055 84.6226 63.0866 84.6226Z"/>
<path d="M170.363 63.281H166.151V104.6L164.985 103.614C157.994 97.609 146.701 97.609 139.71 103.614L102.424 135.612C95.433 141.617 84.1398 141.617 77.1487 135.612L74.1013 133.102C67.7376 127.545 57.6095 127.007 50.4392 131.847L16.9178 154.344C14.946 149.325 13.7808 143.499 13.7808 136.687V61.578C13.7808 36.3026 27.1356 22.9478 52.411 22.9478H125.817V18.7352C125.817 15.1501 126.445 12.1027 127.879 9.50342H52.411C19.786 9.50342 0.336426 28.953 0.336426 61.578V136.687C0.336426 146.457 2.03938 154.972 5.35566 162.142C13.0638 179.172 29.5556 188.762 52.411 188.762H127.52C160.145 188.762 179.595 169.312 179.595 136.687V61.2195C176.996 62.6536 173.948 63.281 170.363 63.281Z"/>
</svg>
