<svg width="35" height="36" viewBox="0 0 35 36"  xmlns="http://www.w3.org/2000/svg">
<path d="M25.9109 0L21.3578 0C15.7539 0 12.2515 3.50243 12.2515 9.10632V16.1987H23.1966C23.9146 16.1987 24.51 16.7941 24.51 17.5121C24.51 18.2301 23.9146 18.8256 23.1966 18.8256H12.2515V25.918C12.2515 31.5219 15.7539 35.0243 21.3578 35.0243H25.8934C31.4973 35.0243 34.9997 31.5219 34.9997 25.918V9.10632C35.0173 3.50243 31.5148 0 25.9109 0Z" />
<path d="M4.47873 16.1981L8.10375 12.5731C8.36643 12.3104 8.48901 11.9777 8.48901 11.645C8.48901 11.3122 8.36643 10.962 8.10375 10.7168C7.59589 10.209 6.75531 10.209 6.24746 10.7168L0.380889 16.5833C-0.126963 17.0912 -0.126963 17.9318 0.380889 18.4396L6.24746 24.3062C6.75531 24.814 7.59589 24.814 8.10375 24.3062C8.6116 23.7983 8.6116 22.9577 8.10375 22.4499L4.47873 18.8249H12.2541V16.1981H4.47873Z" />
</svg>
