<svg width="35" height="24" viewBox="0 0 35 24"  xmlns="http://www.w3.org/2000/svg">
<path d="M33.6538 3.09783H1.34615C0.610256 3.09783 0 2.39565 0 1.54891C0 0.702174 0.610256 0 1.34615 0H33.6538C34.3897 0 35 0.702174 35 1.54891C35 2.39565 34.3897 3.09783 33.6538 3.09783Z" />
<path d="M33.6538 13.424H1.34615C0.610256 13.424 0 12.7218 0 11.8751C0 11.0283 0.610256 10.3262 1.34615 10.3262H33.6538C34.3897 10.3262 35 11.0283 35 11.8751C35 12.7218 34.3897 13.424 33.6538 13.424Z" />
<path d="M33.6538 23.7502H1.34615C0.610256 23.7502 0 23.048 0 22.2013C0 21.3545 0.610256 20.6523 1.34615 20.6523H33.6538C34.3897 20.6523 35 21.3545 35 22.2013C35 23.048 34.3897 23.7502 33.6538 23.7502Z" />
</svg>
