<svg width="25" height="20" viewBox="0 0 25 20" xmlns="http://www.w3.org/2000/svg">
<path d="M24.7586 17.8945L18.5945 13.1305C19.0863 12.1926 19.375 11.1332 19.375 10V8.125C19.375 7.77969 19.0953 7.5 18.75 7.5H18.125C17.7797 7.5 17.5 7.77969 17.5 8.125V10C17.5 10.7 17.3453 11.3594 17.0812 11.9609L16.0441 11.1594C16.1652 10.7922 16.2504 10.4086 16.2504 10.0004V3.75C16.2504 1.67891 14.5715 0 12.5004 0C10.4293 0 8.75036 1.67891 8.75036 3.75V5.52188L1.77614 0.131641C1.50348 -0.0800781 1.11051 -0.03125 0.898793 0.241406L0.131606 1.22852C-0.0801128 1.50078 -0.0312846 1.89336 0.241372 2.10547L23.2242 19.8684C23.4968 20.0805 23.8894 20.0313 24.1015 19.7586L24.8687 18.7715C25.08 18.4992 25.0312 18.1066 24.7586 17.8945ZM15.625 18.125H13.4375V16.8059C13.8929 16.7434 14.33 16.6285 14.7527 16.4813L12.7953 14.9684C12.5332 14.984 12.2714 15.0023 12.0004 14.9762C9.81872 14.7633 8.14332 13.0766 7.65739 10.9977L5.62497 9.42617V9.69375C5.62497 13.1953 8.12379 16.3168 11.5625 16.791V18.125H9.37497C9.02965 18.125 8.74997 18.4047 8.74997 18.75V19.375C8.74997 19.7203 9.02965 20 9.37497 20H15.625C15.9703 20 16.25 19.7203 16.25 19.375V18.75C16.25 18.4047 15.9703 18.125 15.625 18.125Z"/>
</svg>
