<svg width="26" height="21" viewBox="0 0 26 21" xmlns="http://www.w3.org/2000/svg">
<path d="M24.4844 14.1479H23.8594V9.92529C23.8594 9.4292 23.6602 8.95264 23.3086 8.60107L19.4062 4.69873C19.0547 4.34717 18.5781 4.14795 18.082 4.14795H16.3594V2.27295C16.3594 1.23779 15.5195 0.397949 14.4844 0.397949H4.48438C3.44922 0.397949 2.60938 1.23779 2.60938 2.27295V4.14795H0.421875C0.25 4.14795 0.109375 4.28857 0.109375 4.46045V5.08545C0.109375 5.25732 0.25 5.39795 0.421875 5.39795H11.0469C11.2188 5.39795 11.3594 5.53857 11.3594 5.71045V6.33545C11.3594 6.50732 11.2188 6.64795 11.0469 6.64795H1.67188C1.5 6.64795 1.35938 6.78857 1.35938 6.96045V7.58545C1.35938 7.75732 1.5 7.89795 1.67188 7.89795H9.79688C9.96875 7.89795 10.1094 8.03857 10.1094 8.21045V8.83545C10.1094 9.00732 9.96875 9.14795 9.79688 9.14795H0.421875C0.25 9.14795 0.109375 9.28857 0.109375 9.46045V10.0854C0.109375 10.2573 0.25 10.3979 0.421875 10.3979H8.54688C8.71875 10.3979 8.85938 10.5386 8.85938 10.7104V11.3354C8.85938 11.5073 8.71875 11.6479 8.54688 11.6479H2.60938V16.6479C2.60938 18.7183 4.28906 20.3979 6.35938 20.3979C8.42969 20.3979 10.1094 18.7183 10.1094 16.6479H15.1094C15.1094 18.7183 16.7891 20.3979 18.8594 20.3979C20.9297 20.3979 22.6094 18.7183 22.6094 16.6479H24.4844C24.8281 16.6479 25.1094 16.3667 25.1094 16.0229V14.7729C25.1094 14.4292 24.8281 14.1479 24.4844 14.1479ZM6.35938 18.5229C5.32422 18.5229 4.48438 17.6831 4.48438 16.6479C4.48438 15.6128 5.32422 14.7729 6.35938 14.7729C7.39453 14.7729 8.23438 15.6128 8.23438 16.6479C8.23438 17.6831 7.39453 18.5229 6.35938 18.5229ZM18.8594 18.5229C17.8242 18.5229 16.9844 17.6831 16.9844 16.6479C16.9844 15.6128 17.8242 14.7729 18.8594 14.7729C19.8945 14.7729 20.7344 15.6128 20.7344 16.6479C20.7344 17.6831 19.8945 18.5229 18.8594 18.5229ZM21.9844 10.3979H16.3594V6.02295H18.082L21.9844 9.92529V10.3979Z" />
</svg>
