<svg  viewBox="0 0 25 25" xmlns="http://www.w3.org/2000/svg">
<g clip-path="url(#clip0_311_98)">
<path d="M24.0918 1.20121L19.0137 0.0293366C18.4619 -0.0976165 17.8955 0.190469 17.6709 0.708048L15.3272 6.1768C15.1221 6.65531 15.2588 7.21684 15.6641 7.54399L18.6231 9.96586C16.8653 13.711 13.794 16.8262 9.97072 18.6182L7.54885 15.6592C7.21682 15.2539 6.66018 15.1172 6.18166 15.3223L0.712911 17.6661C0.19045 17.8955 -0.0976359 18.462 0.0293172 19.0137L1.20119 24.0918C1.32326 24.6192 1.79201 25 2.34377 25C14.8487 25 25 14.8682 25 2.34379C25 1.79691 24.624 1.32328 24.0918 1.20121Z" />
</g>
<defs>
<clipPath id="clip0_311_98">
<rect width="25" height="25"/>
</clipPath>
</defs>
</svg>
