<svg width="35" height="31" viewBox="0 0 35 31"  xmlns="http://www.w3.org/2000/svg">
<path d="M33.4004 14.9177L26.7969 12.4431V5.02612C26.7969 4.00073 26.1611 3.08472 25.1973 2.72241L18.3613 0.158936C17.8076 -0.0529785 17.1924 -0.0529785 16.6318 0.158936L9.7959 2.72241C8.83203 3.08472 8.19629 4.00073 8.19629 5.02612V12.4431L1.59277 14.9177C0.635742 15.28 0 16.196 0 17.2214V24.7478C0 25.6775 0.526367 26.532 1.36035 26.949L8.19629 30.3669C8.88672 30.7156 9.70703 30.7156 10.3975 30.3669L17.5 26.8123L24.6025 30.3669C25.293 30.7156 26.1133 30.7156 26.8037 30.3669L33.6396 26.949C34.4736 26.532 35 25.6775 35 24.7478V17.2214C35 16.196 34.3643 15.28 33.4004 14.9177ZM24.4727 12.4978L18.6621 14.6785V10.0164L24.4727 7.48706V12.4978ZM10.5273 4.93042L17.5 2.31909L24.4727 4.93042V4.97144L17.5 7.80151L10.5273 4.97144V4.93042ZM16.2695 24.8298L10.459 27.7351V22.3279L16.2695 19.6755V24.8298ZM16.2695 17.1736L9.29688 20.0037L2.32422 17.1736V17.1326L9.29688 14.5212L16.2695 17.1326V17.1736ZM32.6758 24.8298L26.8652 27.7351V22.3279L32.6758 19.6755V24.8298ZM32.6758 17.1736L25.7031 20.0037L18.7305 17.1736V17.1326L25.7031 14.5212L32.6758 17.1326V17.1736Z" />
</svg>
