<svg width="35" height="34" viewBox="0 0 35 34"  xmlns="http://www.w3.org/2000/svg">
<path d="M31.6592 11.6473C28.4933 11.6473 27.1989 9.40837 28.7731 6.66225C29.6827 5.07054 29.1404 3.04156 27.5487 2.13201L24.5227 0.400377C23.1409 -0.421712 21.3568 0.0680434 20.5347 1.44985L20.3423 1.78219C18.7681 4.52831 16.1794 4.52831 14.5877 1.78219L14.3953 1.44985C13.6082 0.0680434 11.8241 -0.421712 10.4423 0.400377L7.41629 2.13201C5.82459 3.04156 5.28236 5.08803 6.1919 6.67974C7.78361 9.40837 6.48925 11.6473 3.32334 11.6473C1.50425 11.6473 0 13.134 0 14.9706V18.0491C0 19.8681 1.48676 21.3724 3.32334 21.3724C6.48925 21.3724 7.78361 23.6113 6.1919 26.3574C5.28236 27.9491 5.82459 29.9781 7.41629 30.8876L10.4423 32.6193C11.8241 33.4414 13.6082 32.9516 14.4303 31.5698L14.6227 31.2375C16.1969 28.4913 18.7856 28.4913 20.3773 31.2375L20.5697 31.5698C21.3918 32.9516 23.1759 33.4414 24.5577 32.6193L27.5837 30.8876C29.1754 29.9781 29.7176 27.9316 28.8081 26.3574C27.2164 23.6113 28.5107 21.3724 31.6767 21.3724C33.4958 21.3724 35 19.8856 35 18.0491V14.9706C34.9825 13.1515 33.4958 11.6473 31.6592 11.6473ZM17.4913 22.1945C14.3603 22.1945 11.8066 19.6408 11.8066 16.5098C11.8066 13.3789 14.3603 10.8252 17.4913 10.8252C20.6222 10.8252 23.1759 13.3789 23.1759 16.5098C23.1759 19.6408 20.6222 22.1945 17.4913 22.1945Z" />
</svg>
