<svg width="20" height="23" viewBox="0 0 20 23"  xmlns="http://www.w3.org/2000/svg">
<path d="M19.2908 4.07877C17.6408 3.9148 15.9908 3.79182 14.3306 3.69959V3.68934L14.1052 2.35708C13.9515 1.41425 13.726 0 11.3279 0H8.64291C6.25505 0 6.02959 1.35276 5.86562 2.34683L5.65041 3.6586C4.69733 3.72009 3.74425 3.78158 2.79117 3.87381L0.70054 4.07877C0.270117 4.11977 -0.0373284 4.49895 0.00366425 4.91912C0.0446569 5.3393 0.413591 5.64674 0.844014 5.60575L2.93464 5.40079C8.30472 4.86788 13.7158 5.07285 19.1473 5.616H19.2293C19.6187 5.616 19.9569 5.3188 19.9979 4.91912C20.0286 4.49895 19.7212 4.11977 19.2908 4.07877Z" />
<path d="M17.4052 7.06081C17.1592 6.80461 16.821 6.66113 16.4726 6.66113H3.51893C3.17049 6.66113 2.82205 6.80461 2.58634 7.06081C2.35063 7.31702 2.21741 7.66545 2.2379 8.02414L2.87329 18.5388C2.98602 20.0965 3.1295 22.0436 6.70611 22.0436H13.2854C16.862 22.0436 17.0056 20.1067 17.1182 18.5388L17.7536 8.03439C17.7741 7.66545 17.6409 7.31702 17.4052 7.06081ZM11.6969 16.9093H8.28428C7.86415 16.9093 7.51572 16.5609 7.51572 16.1407C7.51572 15.7205 7.86415 15.3721 8.28428 15.3721H11.6969C12.1171 15.3721 12.4655 15.7205 12.4655 16.1407C12.4655 16.5609 12.1171 16.9093 11.6969 16.9093ZM12.5578 12.81H7.43373C7.01355 12.81 6.66512 12.4616 6.66512 12.0414C6.66512 11.6212 7.01355 11.2728 7.43373 11.2728H12.5578C12.9779 11.2728 13.3264 11.6212 13.3264 12.0414C13.3264 12.4616 12.9779 12.81 12.5578 12.81Z" />
</svg>
