<svg width="35" height="36" viewBox="0 0 35 36"  xmlns="http://www.w3.org/2000/svg">
<path d="M27.2213 10.1118C27.0987 10.0943 26.976 10.0943 26.8533 10.1118C24.137 10.0242 21.9814 7.79851 21.9814 5.06465C21.9814 2.27822 24.2421 0 27.0461 0C29.8325 0 32.1107 2.26069 32.1107 5.06465C32.0932 7.79851 29.9377 10.0242 27.2213 10.1118Z" />
<path d="M32.9386 22.2568C30.9758 23.5712 28.2244 24.0619 25.6833 23.7289C26.3493 22.2919 26.6998 20.6971 26.7173 19.0148C26.7173 17.2623 26.3317 15.5974 25.5957 14.1429C28.1894 13.7924 30.9408 14.2831 32.921 15.5974C35.69 17.42 35.69 20.4167 32.9386 22.2568Z" />
<path d="M7.78789 10.1118C7.91057 10.0943 8.03324 10.0943 8.15591 10.1118C10.8722 10.0242 13.0278 7.79851 13.0278 5.06465C13.0278 2.26069 10.7671 0 7.96314 0C5.17671 0 2.91602 2.26069 2.91602 5.06465C2.91602 7.79851 5.07156 10.0242 7.78789 10.1118Z" />
<path d="M7.98252 19.0151C7.98252 20.715 8.35054 22.3273 9.01648 23.7818C6.54549 24.0447 3.96935 23.519 2.07668 22.2747C-0.692227 20.4346 -0.692227 17.4379 2.07668 15.5978C3.95183 14.336 6.59807 13.8278 9.08658 14.1082C8.36806 15.5803 7.98252 17.2451 7.98252 19.0151Z" />
<path d="M17.7432 24.3071C17.603 24.2896 17.4453 24.2896 17.2875 24.3071C14.063 24.2019 11.4868 21.5557 11.4868 18.2961C11.5043 14.9664 14.1857 12.2676 17.5329 12.2676C20.8626 12.2676 23.5614 14.9664 23.5614 18.2961C23.5439 21.5557 20.9853 24.2019 17.7432 24.3071Z" />
<path d="M12.0477 27.9353C9.40143 29.7053 9.40143 32.6144 12.0477 34.3669C15.062 36.3823 20.0039 36.3823 23.0182 34.3669C25.6644 32.5969 25.6644 29.6878 23.0182 27.9353C20.0215 25.92 15.0795 25.92 12.0477 27.9353Z" />
</svg>
